{
    "asset" : {
        "generator" : "Khronos Blender glTF 2.0 I/O",
        "version" : "2.0"
    },
    "scene" : 0,
    "scenes" : [
        {
            "name" : "Scene",
            "nodes" : [
                0,
                1,
                2,
                3,
                4,
                5,
                6,
                7,
                8,
                9,
                10,
                11,
                12,
                13
            ]
        }
    ],
    "nodes" : [
        {
            "name" : "Camera",
            "rotation" : [
                0.483536034822464,
                0.33687159419059753,
                -0.20870360732078552,
                0.7804827094078064
            ],
            "translation" : [
                7.358891487121582,
                4.958309173583984,
                6.925790786743164
            ]
        },
        {
            "name" : "Light.001",
            "rotation" : [
                0.5232754945755005,
                0.34203392267227173,
                -0.7269423604011536,
                0.284166157245636
            ],
            "translation" : [
                4.076245307922363,
                5.903862476348877,
                -1.0054532289505005
            ]
        },
        {
            "name" : "Camera.001",
            "rotation" : [
                0.8937963247299194,
                0.09062855690717697,
                -0.3857799172401428,
                0.20997287333011627
            ],
            "translation" : [
                7.358891487121582,
                4.958308696746826,
                6.925792217254639
            ]
        },
        {
            "name" : "Light",
            "rotation" : [
                0.5232754945755005,
                0.34203392267227173,
                -0.7269423604011536,
                0.284166157245636
            ],
            "translation" : [
                4.076245307922363,
                5.903862476348877,
                -1.0054532289505005
            ]
        },
        {
            "name" : "Camera.002",
            "rotation" : [
                0.8937963247299194,
                0.09062855690717697,
                -0.3857799172401428,
                0.20997287333011627
            ],
            "translation" : [
                7.358891487121582,
                4.958308696746826,
                6.925792217254639
            ]
        },
        {
            "name" : "Light.002",
            "rotation" : [
                0.5232754945755005,
                0.34203392267227173,
                -0.7269423604011536,
                0.284166157245636
            ],
            "translation" : [
                4.076245307922363,
                5.903862476348877,
                -1.0054532289505005
            ]
        },
        {
            "name" : "Camera.003",
            "rotation" : [
                0.8937963247299194,
                0.09062855690717697,
                -0.3857799172401428,
                0.20997287333011627
            ],
            "translation" : [
                7.358891487121582,
                4.958308696746826,
                6.925792217254639
            ]
        },
        {
            "name" : "Light.003",
            "rotation" : [
                -0.5709477066993713,
                0.2721712291240692,
                0.7558802962303162,
                0.16907566785812378
            ],
            "translation" : [
                4.076245307922363,
                5.903862953186035,
                -1.0054525136947632
            ]
        },
        {
            "name" : "Camera.004",
            "rotation" : [
                -0.7804825901985168,
                0.20870345830917358,
                0.33687177300453186,
                0.4835361838340759
            ],
            "translation" : [
                7.358891487121582,
                4.958308219909668,
                6.925793647766113
            ]
        },
        {
            "name" : "Light.004",
            "rotation" : [
                0.16907554864883423,
                0.7558803558349609,
                -0.27217110991477966,
                0.5709477066993713
            ],
            "scale" : [
                0.9830891489982605,
                0.9830889105796814,
                0.9830889105796814
            ],
            "translation" : [
                4.071771621704102,
                5.871102809906006,
                -0.9550724029541016
            ]
        },
        {
            "name" : "Light.005",
            "rotation" : [
                0.16907554864883423,
                0.7558803558349609,
                -0.27217110991477966,
                0.5709477066993713
            ],
            "scale" : [
                0.9830891489982605,
                0.9830889105796814,
                0.9830889105796814
            ],
            "translation" : [
                4.071771621704102,
                5.871102809906006,
                -0.9550724029541016
            ]
        },
        {
            "name" : "Camera.005",
            "rotation" : [
                0.483536034822464,
                0.33687177300453186,
                -0.20870348811149597,
                0.7804827690124512
            ],
            "scale" : [
                0.9830883741378784,
                0.9830889105796814,
                0.9830894470214844
            ],
            "translation" : [
                7.2989020347595215,
                4.941537380218506,
                6.842042922973633
            ]
        },
        {
            "mesh" : 0,
            "name" : "Cube.008",
            "rotation" : [
                0,
                -0.7077381014823914,
                0,
                0.7064749002456665
            ],
            "scale" : [
                0.03822669759392738,
                0.18762975931167603,
                0.1553630530834198
            ],
            "translation" : [
                -0.29339540004730225,
                1.297750473022461,
                0.3757037818431854
            ]
        },
        {
            "name" : "Lamp",
            "rotation" : [
                -0.2841666042804718,
                0.7269421815872192,
                0.3420339822769165,
                0.5232755541801453
            ],
            "translation" : [
                5.614884376525879,
                2.482699394226074,
                -3.6977145671844482
            ]
        }
    ],
    "materials" : [
        {
            "name" : "Material_COLOR_0.001_COLOR_0_COLOR_0_COLOR_0",
            "pbrMetallicRoughness" : {
                "metallicFactor" : 0,
                "roughnessFactor" : 0.5
            }
        }
    ],
    "meshes" : [
        {
            "name" : "Cube.024",
            "primitives" : [
                {
                    "attributes" : {
                        "POSITION" : 0,
                        "NORMAL" : 1,
                        "TEXCOORD_0" : 2,
                        "COLOR_0" : 3
                    },
                    "indices" : 4,
                    "material" : 0
                }
            ]
        }
    ],
    "accessors" : [
        {
            "bufferView" : 0,
            "componentType" : 5126,
            "count" : 29268,
            "max" : [
                1.4692294597625732,
                4.772193908691406,
                1.8920416831970215
            ],
            "min" : [
                -22.934005737304688,
                -7.011244773864746,
                -6.310673236846924
            ],
            "type" : "VEC3"
        },
        {
            "bufferView" : 1,
            "componentType" : 5126,
            "count" : 29268,
            "type" : "VEC3"
        },
        {
            "bufferView" : 2,
            "componentType" : 5126,
            "count" : 29268,
            "type" : "VEC2"
        },
        {
            "bufferView" : 3,
            "componentType" : 5126,
            "count" : 29268,
            "type" : "VEC4"
        },
        {
            "bufferView" : 4,
            "componentType" : 5123,
            "count" : 29268,
            "type" : "SCALAR"
        }
    ],
    "bufferViews" : [
        {
            "buffer" : 0,
            "byteLength" : 351216,
            "byteOffset" : 0
        },
        {
            "buffer" : 0,
            "byteLength" : 351216,
            "byteOffset" : 351216
        },
        {
            "buffer" : 0,
            "byteLength" : 234144,
            "byteOffset" : 702432
        },
        {
            "buffer" : 0,
            "byteLength" : 468288,
            "byteOffset" : 936576
        },
        {
            "buffer" : 0,
            "byteLength" : 58536,
            "byteOffset" : 1404864
        }
    ],
    "buffers" : [
        {
            "byteLength" : 1463400,
            "uri" : "fridge.bin"
        }
    ]
}
