<?xml version="1.0" encoding="utf-8"?>
<!-- Generated by Shoe Palace, Inc. http://www.shoepalace.com/ -->
<!DOCTYPE svg PUBLIC "-//W3C//DTD SVG 1.1//EN" "http://www.w3.org/Graphics/SVG/1.1/DTD/svg11.dtd">
<svg preserveAspectRatio="xMidYMid" width="256px" height="256px" viewBox="0 0 256 256" xmlns="http://www.w3.org/2000/svg" version="1.1" xmlns:xlink="http://www.w3.org/1999/xlink">
	<path fill="#231f20" d="M19.1,144.6c4.1,0,9-2.1,13.9-1.6c0.8-2.1,0.8-4.1,1.6-6.1c0.8-2.4,2.1-4.9,2.8-7.3c0.4-0.8,0.4-2.1,0.8-2.8c0.4-0.8,0.4-1.2,0.8-2.1c0-0.4,0.4-0.8,0.4-1.2c0-0.4,0-0.8,0-1.2c0-0.4,0.4-0.8,0.4-1.2c0.4-0.8,0.4-2.1,0.8-2.8c0.4-1.6,1.2-2.8,1.6-4.5c0.4-1.6,0.8-2.8,1.2-4.5c0.4-1.6,1.2-2.4,1.6-4.1c0.8-1.6,0.8-3.7,1.6-5.3c0.8-2.1,1.2-3.7,1.6-5.7c0.8-3.3,2.4-6.5,4.1-9.8c0.8-2.1,2.1-4.1,2.4-6.5c0-0.8,0.4-1.6,0.4-2.4c0.4-0.8,0.8-2.4,1.6-2.4c1.2-0.4,3.3,2.4,4.1,3.3c0.4,0.4,0.8,1.2,1.2,1.6c0.4,0.4,0.8,1.2,0.8,1.6c0,0.8,0,1.2,0,2.1c-0.4,1.2-0.8,2.8-1.2,4.1c-0.4,0.8-0.4,1.2-0.8,2.1c-0.8,2.4-1.6,4.5-2.4,6.5c-1.2,3.3-2.4,6.1-3.7,9.4c-0.8,2.1-1.2,4.5-2.1,6.5c-0.8,2.4-1.6,4.9-2.4,7.8c-0.4,2.1-1.2,3.7-2.1,5.7c-0.8,2-1.2,3.7-2.1,5.7c-0.8,3.3-2.4,6.5-3.3,9.8c0,0.8-0.4,1.2-0.4,2.1c0,0.4-0.4,1.2-0.4,1.6c2.1,0.4,4.5,0.4,6.5,0.4c0.8-1.6,1.2-2.8,2.1-4.5c1.2-2.1,2.4-4.9,4.5-7.3c0.4-0.4,0.8-0.4,1.2-0.8c1.6-2.1,3.3-3.7,6.1-4.9c0.4-0.4,2.1-0.8,2.4-0.8c1.6,0,2.4,2.1,3.7,2.8c0.8,0.4,1.6,0.8,2.4,1.6c0.8,0.4,1.6,1.2,2.4,2.1c0.4,0.8,1.2,2.1,1.2,2.8c0,1.2-0.4,2.4-0.8,4.1c-0.4,2.4-0.4,4.1-1.6,5.7c-0.8,0.8-2.1,1.2-2.8,2.1c-0.4,0.4-0.8,0.8-1.6,0.8c-0.8,0.4-1.2,0.8-2.1,0.8c-0.8,0.4-1.6,0.4-2.4,0.8c-1.6,0.4-3.3,1.2-4.9,1.6c-0.4,0-2.8,0.4-2.8,0.4c-0.8,3.7,0,8.2,2.1,10.6c1.2,0.4,3.3-0.4,4.5-1.2c1.6-0.8,3.3-2.4,4.5-3.7c3.3-2.8,5.7-6.1,8.2-9.8c0.4-0.8,0.8-2.1,1.6-2.8c0.4-0.4,0.4-0.4,0.4-0.8c0.4-1.6,1.2-2.8,2.1-4.1c0.8-1.2,1.6-3.3,1.6-4.5c0.4-2.1-0.8-4.5,0-6.5c0.4-0.8,0.8-1.2,1.2-2.1c0.4-0.4,0.4-0.8,0.4-1.2c0-1.2,1.6-1.2,2.4-0.8c0.8,0.4,1.2,2.1,2.1,2.4c0.8,0.8,1.6,1.6,2.1,2.1c0.4,1.2,0,2.4,0.8,3.3c2.1-0.4,3.3-1.6,4.9-1.2c0.8,0,1.6,0.8,2.8,1.2c0.8,0.4,2.1,0.4,2.8,1.2c0.4,0.4,0.8,1.2,1.2,2.1c0.4,1.2,0.8,2.9,0.8,4.5c0,1.6-1.2,2.4-1.6,3.3c-4.1,3.7-7.3,7.8-9,13.5c0,0.4-0.4,1.6-0.4,2.1c0.4,0.4,1.6-0.8,2.1-1.2c0.4-0.4,0.4-0.4,0.8-0.8c0.8-0.8,1.6-1.6,2.8-2.4c1.6-1.6,3.7-3.3,4.9-5.3c-1.2-2.8,0.4-5.3,2.8-3.3c1.6-1.6,2.4-3.7,4.1-5.7c0.4-0.8,1.2-1.2,1.6-2.1c0.4-0.8,0.8-1.6,1.2-2.4c0.4-0.8,1.2-1.6,1.6-2.8c0.4-0.8,1.2-1.6,1.6-2.8c0.4-0.4,0.4-0.8,0.8-1.6c0-0.4,0.4-0.8,0.4-1.2c0-0.4,0-1.2,0-1.6c0-0.4,0-1.2,0-1.6s0-1.2,0-1.6s0.8-0.4,1.2-0.4c0,0,0-0.4,0-0.8l0.4-0.4c0.4-0.4,0.8-0.4,1.2-0.4c0.8,0,1.6,0.4,2.4,1.2c0.4,0.4,0.4,1.2,0.4,1.6c1.2,1.2,2.8,2.8,2.8,4.9c0,0.8-0.4,1.6-0.8,2.1c-0.4,2.8,0,6.5,0.8,9.4c0.8,2.8,1.2,6.5,1.2,9.8c0.8-0.4,1.2-1.2,1.6-2.1c0.8-1.6,2.1-3.3,2.8-4.9c0.8-2.1,1.6-3.7,2.8-5.3c0.4-0.8,1.2-1.6,2.1-2.4c1.2-2.1,2.4-3.7,3.7-5.3c0.8-0.8,2.1-2.1,3.3-2.8c0.4-0.4,1.2-0.8,1.6-1.2c0.4-0.4,0.8-1.2,1.6-1.2c0.4-0.4,1.2-0.4,1.6-0.4s1.2-0.4,1.6-0.4c1.2,0,2.4-0.4,3.3,0.4c0.8,0.4,2.1,1.2,2.8,2.1c0.4,0.8,1.2,2.1,2.1,2.4c0.4,0,0.8,0,0.8,0c0.4,0,1.2-0.4,1.6,0c0.4,0.4,0.8,0.8,0.8,1.6c0,1.2,0,2.4-0.4,3.3c0,0.4-0.4,0.8-0.4,1.2c0,0.4-0.4,0.8-0.8,1.2c-0.4,0.4-0.8,0.8-0.8,1.6c-0.4,0.8-0.4,1.2-0.8,2.1c-0.4,0.8-0.8,1.2-1.2,2.1c-0.4,1.2-0.8,2.1-2.8,1.2c-0.4-0.4-1.2-0.8-1.6-1.2c-0.4-0.4-0.8-0.4-1.2-1.2c-1.2,0.8-1.2,0.4-1.2-0.4c0-0.8-0.4-1.2-0.4-1.6c0-0.8,0.4-1.2,0.4-1.6c0-0.4,0.4-0.8,0-1.2c-0.4-0.4-1.2,0-1.6,0c-1.2,0.4-1.6,1.6-2.4,2.4c-1.2,1.2-2.4,2.4-3.3,4.1c-0.4,0.8-0.8,1.6-1.2,2.4c-0.4,0.8-1.2,1.6-1.2,2.4c-0.8,2.8-1.2,4.9,0.8,7c0.4,0.4,0.8,0.4,1.2,0.4c0.4,0,0.4,0.4,0.8,0.4c0.8,0.4,1.6,0.8,2.4,0.8c2.4-0.4,6.1-2.1,8.2-3.3c0.8-0.4,1.6-1.6,2.8-2.1c0.8-0.8,2.1-1.6,2.4-2.4c0-0.4,0.4-0.8,0.4-1.2c0.8-1.6,1.6-3.3,2.1-5.3c0.4-1.2,0.8-2.4,1.2-3.3c0.4-0.4,0.4-1.2,0.4-1.6c0.4-1.2,1.2-2.1,1.6-3.3c0.8-1.2,1.2-2.8,2.1-4.1c0.4-0.8,0.8-1.6,1.2-2.4c0.8-1.6,1.2-2.8,1.6-4.5c0.4-0.8,0.4-1.6,0.8-2.1c0.4-0.8,0.8-1.2,0.8-2.1c0-0.8,0.4-1.2,0.4-2.1c0.4-0.8,0.8-1.2,0.8-2.1c0.8-1.6,1.6-3.7,2.4-5.3c0.4-1.2,0.8-2.4,1.6-3.7c0.8-1.6,1.6-3.7,2.4-5.7c0.8-1.2,1.2-2.1,1.6-3.7c0.4-1.2,1.2-2.1,2.1-3.3c0.8-1.2,0.8-2.8,1.6-4.5c0.8-1.2,1.2-2.4,2.1-4.1c0.4-1.2,0.8-2.4,1.6-4.1c0.4-0.8,1.2-2.8,2.1-3.3c2.1-0.8,4.1,2.4,4.9,4.1c0.4,0.4,0.8,1.2,0.8,2.1c0,1.2,0,2.4-0.4,3.7c-0.8,3.7-2.4,6.5-3.7,9.4c-3.3,5.7-6.5,11.4-9.8,17.1c-0.4,0.8-1.2,1.6-1.6,2.4c-0.4,0.8-0.4,1.6-0.8,2.1c-0.4,0.8-0.8,1.2-1.2,2.1c-0.4,0.8-0.4,1.2-0.8,2.1c0,0.4-0.4,1.2-0.4,1.6c-0.4,0.4-0.4,1.2-0.8,1.6c1.2-0.4,2.1-0.8,2.8-1.6c0.4-0.4,0.8-0.8,1.2-0.8c0.8-0.4,2.1-0.8,2.8-1.2c0.8-0.4,2.1-0.4,3.3-0.4c1.2,0.4,2.4,1.2,3.3,2.1c0.8,0.4,1.6,1.2,2.1,1.6c0.4,0.8,1.2,1.6,1.6,2.4c0.4,2.1-0.4,3.3-0.8,4.9c0,0.8,0,1.6,0,2.4s-0.4,1.2-0.8,2.1c-0.8,1.2-1.6,2.4-2.1,3.7c-0.4,0.8-0.4,1.6-0.8,2.1c-0.4,0.8-1.2,1.6-1.6,2.4c-0.4,0.8-0.8,1.6-0.8,2.4c-0.4,0.8-0.8,2.1-1.2,2.8c-0.4,0.8-1.2,2.8,0,3.3c0.8,0.4,2.8-0.8,3.7-1.6c0.8-0.8,1.6-1.2,2.4-2.1c0.8-0.8,1.6-1.2,2.4-2.1c0.8-0.8,1.6-1.6,2.4-2.8c0.4-1.6,0.4-4.1,0.8-5.7c0.4-1.6,1.2-3.3,2.1-4.9c2.1-4.1,4.5-7,8.2-9.8c0.8-0.8,1.2-1.2,2.1-1.6c2.1-0.8,4.9,0,6.1,1.2c0.8,0.8,2.1,1.6,2.8,2.4c1.2,1.2,3.3,2.1,3.7,4.1c0.4,0.8,0,1.6,0,2.8c-0.4,1.2-0.4,2.1-0.8,3.3c-0.4,1.2-0.8,2.4-1.2,3.3c-0.4,0.4-0.8,0.8-1.6,1.6c-0.8,0.8-2.1,1.6-3.3,2.8c-1.2,1.2-2.4,2.1-4.1,3.3c-0.8,0.4-2.1,2.1-3.7,1.6c-1.2-0.4-2.1-1.6-3.3-2.1c-0.8,2.4,0.8,4.9,2.1,7c0.4,0.4,0.8,0.8,1.2,0.8c1.6,0.4,2.8-0.4,4.1-1.2c2.1-1.2,2.8-2.8,4.5-4.1c0.8-0.8,2.1-1.2,2.4-2.1c0.4-0.4,1.2-1.2,1.6-2.1c0.8-1.2,2.1-2.8,3.3-3.7c0.4-0.4,1.2-0.8,2.1-1.6c0.4-0.4,1.2-1.2,1.6-2.1c1.6-2.1,2.1-3.3,2.4-6.1c0.4-1.6,0.4-3.7,0.4-5.3c0.4-1.6,0.4-3.3,0.8-4.9c0.4-1.2,0.4-2.1,0.4-3.3c0.8-4.9,2.9-9.4,4.5-14.3c0.4-1.2,0.4-2.4,0.8-3.7c0.4-1.2,1.2-2.1,1.2-3.3c0.4-0.8,0.4-2.1,0.8-2.8c0.4-0.8,1.2-1.6,1.6-2.8c0.4-0.8,0.8-1.6,1.2-2.8c1.6-3.7,3.3-7.3,5.3-11c0.8-1.6,2.1-3.7,2.9-5.3c0.8-1.2,0.8-3.3,2.4-3.7c1.2-0.4,3.7,0.8,4.9,1.6c1.6,1.2,0.4,4.5,0,6.5c-0.4,1.6-0.8,2.8-0.8,4.5c0,0.8,0,1.2-0.4,2.1c-0.4,1.6-0.8,3.3-1.2,4.9c-0.4,1.6-0.4,3.7-0.8,5.3c0,0.8-0.8,1.6-0.8,2.9c0,1.2,0,2.4-0.4,3.3c-0.8,1.6-1.2,2.8-1.6,4.5c-0.4,1.6-0.8,2.8-1.6,4.5c-0.8,1.2-1.2,2.4-1.6,3.7c-0.4,1.2-1.2,2.4-1.6,4.1c-0.8,2.1-1.6,4.1-2.8,6.1c-1.6,3.3-3.7,6.5-5.7,9.8c-0.4,0.8-0.8,1.2-1.2,2.1c-0.4,0.8-1.2,1.2-1.2,2.1c-0.4,1.6-0.4,4.5,0,7c0.4,1.6,0.4,3.3,0.4,4.9c0,0.8,0,1.6,0.4,2.1c0,0.4,0.4,1.2,0.8,1.6c0.8,0.4,2.1,0,2.8,0c0.8,0,1.6-0.4,2.4-0.8c0.8-0.4,1.2-0.8,2.1-1.2c0.8-0.4,1.2-0.8,2.1-1.2c1.6-0.4,2.8-2.1,4.1-3.3c0.8-0.8,2.1-2.8,3.3-3.3c1.6-0.4,2.4,1.6,1.6,3.3c-0.4,1.2-1.2,2.1-1.6,3.3c-0.8,1.2-1.6,2.4-2.4,3.7c-1.2,1.2-2.4,2.1-4.1,3.3c-0.4,0.4-0.4,0.8-0.8,0.8c-0.4,0.4-0.8,0.4-1.2,0.8c-0.8,0.4-1.6,0.8-2.4,1.6c-0.8,0.4-1.6,0.8-2.8,1.2c-1.2,0.4-2.8,0.4-4.1,0.4c-0.8,0-2.1,0-2.8-0.4c-0.8-0.4-1.6-1.2-2.4-1.6c-1.2-0.4-2.1-2.1-2.1-3.3c-0.4-1.6-0.8-3.3-0.8-4.9c0-0.8,0-2.1,0-2.8c-4.5,3.3-10.2,9.8-15.1,13.1c-1.2,0.8-3.7,0.8-5.3,0.4c-1.2-0.4-2.4-1.2-3.7-1.6c-0.8-0.4-1.6-0.8-2.4-1.6c-0.8-0.8-1.6-2.1-2.4-3.3c-0.4-0.4-0.8-1.2-1.6-1.6l-1.2,0.8c-0.4,0.4-0.8,0.8-1.2,1.2c-0.4,0.4-0.8,0.8-1.2,0.8c-0.8,0.8-1.6,1.2-2.4,1.6c-1.6,1.2-4.1,2.1-6.1,2.1c-0.8,0-1.2,0-2.1,0c-1.2,0-2.4-0.4-3.7-1.2c-0.8-0.4-2.1-0.8-2.8-2.1c-0.4-0.4-0.4-1.2-0.4-2.1c0-0.8,0.4-2.4,0.8-3.3c0.4-1.2,0.4-2.4,0.8-3.3c0.8-1.6,1.6-3.7,2.4-5.3c0.4-1.2,1.2-2.4,1.6-3.7c0.4-1.3,0.4-2.4,0.8-3.7c0-0.8,0.4-2.4-0.4-2.8c-1.2-1.2-4.1-0.4-5.3,0.4c-0.8,0.4-1.6,0.8-2.1,1.2c-0.4,0.4-1.2,0.4-1.6,1.2c-0.4,0.4-0.4,0.8-0.8,1.2c-0.4,0.4-0.8,0.8-1.6,1.6c-0.4,0.4-0.4,1.2-0.8,1.6c0,0.4-0.4,0.8-0.4,1.6c-0.4,0.8-0.8,2.1-1.2,2.8c-0.4,1.2-1.2,2.4-1.6,4.5c-0.8,2.4-2.1,5.3-2.4,8.2c-0.4,1.2-0.4,2.8-0.8,4.1c0,0.4-0.8,1.6-1.2,1.6s-1.6-0.4-2.4-0.8c-1.6-0.8-3.3-0.8-3.7-2.8c-1.2,0.4-2.4,1.2-3.3,1.6c-0.4,0.4-0.8,0.8-1.2,0.8c-0.4,0.4-1.2,0.4-1.6,0.4c-0.4,0-0.4,0-0.8,0.4c-0.4,0.4-0.8,0.4-1.6,0.4c-0.8,0-1.2,0-2.1,0c-1.2,0-2.8-0.4-4.1-0.4c-0.8,0-1.6,0-2.1-0.4c-0.8-0.4-1.2-0.8-1.6-1.2c-1.2-0.8-2.4-2.1-3.3-3.3c-0.8-1.2-1.2-2.8-1.6-4.5c-1.2,0.8-1.6,1.6-2.4,2.8c-0.8,0.8-1.2,2.1-2.1,3.3c-1.6,2.1-2.8,4.1-4.9,5.7c-1.6,1.2-4.9,2.1-7.3,2.1c-4.9-0.8-7.8-4.5-10.2-8.2c-1.6,1.6-3.7,3.7-6.1,5.7c-1.6,1.2-2.1,2.1-4.1,2.8c-1.2,0.4-2.4,0.8-3.7,0.8c-0.8,0-1.2,0-2.1-0.4c-0.4,0-1.2,0-1.6-0.4c-0.4-0.4-0.8-0.8-1.2-1.6c-0.4-1.2-0.8-2.8-1.2-4.1c0-0.8,0-1.6,0-2.4c0-0.8,0-2.1,0.4-2.8c0.4-0.8,0.8-2.1,0.8-2.8c0.4-1.2,0.8-2.4,1.6-3.7c0.4-0.8,2.1-2.8,1.6-3.3c0-1.6-2.8-1.2-3.7-2.1c-1.2,1.2-2.1,2.8-2.8,4.1c-0.4,0.8-0.8,1.2-1.2,2.1c-0.4,0.8-0.8,1.6-1.2,2.4c-0.4,0.8-1.2,1.2-1.6,2.1c-0.4,0.8-0.8,1.6-1.2,2.4c-1.2,1.6-1.6,3.3-2.8,4.5c-0.8,1.2-2.1,2.8-3.3,4.1c-1.2,1.2-2.8,2.8-4.5,3.7c-0.8,0.4-2.1,0.4-2.8,0.4c-1.2,0-2.4,0.4-3.3,0.4c-1.2,0.4-2.4,0.4-3.7,0.4c-0.8,0-1.6-0.8-2.8-0.8c-0.8-0.4-1.2-0.4-2.1-0.8c-0.8-0.4-1.2-1.2-1.6-1.6c-0.4-0.4-0.8-0.8-1.2-1.2c-1.6-2.8-2.1-7-2.1-11c-2.4-0.4-5.3-0.4-7.8-0.8c-0.4,0-2.1,5.7-2.1,6.5c-0.8,2.4-1.2,4.5-1.6,7c0,0.8-0.4,2.1-0.4,2.8c0,0.4-0.4,0.8-0.4,1.2c-1.2,3.7-2.4,7-3.7,10.6c0,0.8-0.4,1.2-0.8,1.6c-0.4,0.8-1.2,0.4-2.1,0.8c-0.4,0-0.4,0.4-0.8,0.4c-0.4,0-0.8-0.4-0.8-0.8c-0.4-0.8,0-2.1,0-2.8c0-1.2-0.4-2.8-0.4-4.5c0-1.2,0.4-2.4,0.4-3.3c0-1.6,0.4-3.3,0.8-4.9c0.4-2.4,0.4-5.3,1.2-7.8c0.4-2.4,1.2-4.9,1.6-7c-4.9,0.4-9.8,1.6-13.9,3.3c-0.4,0.4-0.4,1.2-0.8,2.1c-0.4,0.8-0.8,2.1-1.2,2.8c-0.4,2.8-1.2,5.7-1.6,8.6c0,1.6-0.4,2.8-0.8,4.5c-0.8,3.7-1.6,7.3-2.4,11.4c0,0.4,0,0.8-0.4,1.2c-0.4,0.4-0.8,0.4-1.2,0.8c-0.4,0.4-0.4,1.6-1.2,1.6c2.1-0.8,0.4-1.6,0.4-1.6c-0.4-0.4-0.4-1.2-0.4-1.6c-0.4-1.2-0.4-2.4,0-3.7c0-2.1,0.4-3.7,0.8-5.7c0-1.2,0.4-2.1,0.4-3.3c0.8-4.9,0.8-9.8,2.1-14.3c-1.2,0.4-3.3,1.2-4.9,0.8c-0.8-0.4-2.4-1.6-2.8-2.8c-0.4-0.8-0.8-2.1-0.8-3.3c0-0.4-0.4-1.2-0.4-1.6s0.4-0.4,0.8-0.4c0.8,0.4,1.2,0,2.1-0.4c0.8,0,1.6-0.4,2.4-0.4c1.6-0.4,3.7-1.2,5.3-2.1c0.4-1.2,0.4-2.8,0.8-4.5c0.8-3.3,1.2-6.1,2.1-9.4c0.4-1.2,0.4-2.8,0.8-4.1c0-0.4,0-0.8,0-1.2c0-0.4,0-0.8,0-1.2c0-0.4,0.4-1.2,0.4-1.6c0.4-1.2,0.8-2.4,0.8-3.3c0.4-2.9,0.8-6.1,1.6-9.4c0.8-2.8,2.1-5.7,2.4-8.6c0-1.2,0-2.4,0.4-3.7c0-0.8,0.8-1.2,0.8-1.6c0-0.4,0-1.2,0-2.1c1.2-5.3,3.3-10.6,4.5-15.9c0-0.8,0.4-1.6,0.4-2.1c0-0.8,0-1.6,0.4-2.1c0.4-0.8,0.8-1.6,0.8-2.1c0.4-1.6,0.8-3.3,0.8-4.9c0.4-0.8,0.4-1.6,0.8-2.4c0.4-0.8,2.1,0,2.4,0c0.4,0,0.8,0.4,1.2,0.4c0.8,0.4,1.2,0.4,1.6,0.8c0.4,0.4,0.8,0.8,1.2,1.2c0.8,0.8,1.6,1.6,2.1,2.9c0.4,0.8,0.4,1.6,0.4,2.4c0,0.8-0.8,1.6-0.8,2.4c-0.8,2.1-1.2,4.1-1.6,6.1c-2.1,5.3-3.7,11.4-5.7,17.1c-0.4,0.8-0.8,2.1-0.8,2.8c-0.8,2.4-0.8,5.3-1.6,7.8c-0.4,1.2-0.8,2.1-1.2,3.7c-0.4,1.2-0.8,2.4-0.8,3.7c-1.2,6.1-2.4,11.9-4.1,18C21.2,138.5,19.5,141.4,19.1,144.6z M249,87.9c-1.6,3.7-3.3,7-4.5,11.4c-0.4,0.4-0.4,1.2-0.4,1.6c0,1.6-4.9,13.5-4.5,15.1c1.2-1.6,5.3-13.9,6.1-15.5c0-0.4,0-0.4,0-0.4C247.4,96.5,248.6,92.4,249,87.9L249,87.9z M66.1,133.2c-2.4,2.4-4.5,4.9-6.5,7.3c-0.4,0.4-1.2,1.2-1.2,2.1C63.2,141.8,66.5,138.1,66.1,133.2C66.5,133.2,66.5,133.2,66.1,133.2z M111,155.2c0.8,0.4,1.6,1.2,2.1,1.2c0.4,0,1.6-1.2,2.1-1.6c1.2-1.2,2.4-2.8,2.4-4.1c0-4.1-1.2-9-1.2-13.1c0,0,0,0-0.4,0c-3.7,4.1-5.3,9.4-8.6,13.9c0.8,0.8,1.2,2.1,2.1,2.8C110.2,154.5,110.6,154.8,111,155.2z M204.9,138.9c1.6-0.4,8.2-6.5,7.8-10.6C209.8,127.5,205.7,137.3,204.9,138.9z M120.8,95.2c2.4,0,5.3,0,7.3,0c0,0.8,0.4,1.6,0,2.4c-0.4,0.4-1.6,0-2.4,0c0,4.5,0,9.8,0,14.7c-0.4,0.4-2.1,0.4-2.4,0c0-4.9,0-9.8,0-15.1c-0.8,0-2.1,0-2.8,0C120.4,97.3,120,95.7,120.8,95.2z M135.9,95.7c0,5.3,0,11.9,0,17.1c-0.4,0.4-1.6,0-2.4,0c-0.4-2.1,0-5.3,0-7.8c-0.4-0.4-1.2,0-1.6,0c0,2.4,0.4,5.7,0,7.8c-0.8,0-2.1,0.4-2.4-0.4c-0.4-5.3,0-11.4,0.4-16.7c0.8-0.4,1.6,0,2.4,0c0,2.1,0,4.5,0,6.5c0.4,0.4,1.2,0,1.6,0c0-2.1-0.4-4.9,0-7C134.3,95.7,135.1,95.7,135.9,95.7z M144.5,96c0,0.4,0.4,1.6,0,2.1c-0.8,0.4-2.1,0-2.8,0c-0.4,1.2,0,3.3,0,4.5c0.8,0,2.1,0,2.8,0c0,0.4,0.4,1.6,0,2.1c-0.4,0.4-1.6,0-2.4,0.4c-0.4,1.6,0,3.3,0,4.9c0.8,0,2.1,0,2.8,0c0,0.4,0.4,1.2,0,2.1c-2.1,0.4-3.7,0.4-5.7,0c0-3.7-0.4-7.3-0.4-11c0-1.6-0.4-3.7,0.4-5.3C140,95.7,142.9,95.7,144.5,96z M138.3,171.6c2.1-0.4,2.8,1.2,3.3,2.8c0.4,2.4,0,4.9,0,7c0,0.8,0,1.6,0,2.1c0,1.2,0.4,2.4-0.4,3.7c-0.8,0.8-2.1,1.6-3.3,1.6c-0.8,0-2.4-0.4-2.8-0.8c-1.2-1.2-0.8-9.4-0.8-12.2C135.1,173.6,135.9,172,138.3,171.6z M139.6,174.4c0-0.4-0.4-0.4-0.4-0.4c-0.8-0.4-1.2,0-1.6,0.8c-0.4,1.2,0,4.5,0,6.5c0,0.8,0,1.6,0,2.4c0,1.2,0,2.1,0.4,3.3c0,0.4,0.4,0.4,0.8,0.4c1.2,0,1.2-0.8,1.2-1.6c0.4-0.8,0.4-2.1,0.4-3.3c0-1.6,0-3.7,0-5.3c0-0.4,0-0.8,0-1.6C139.6,174.9,139.6,174.4,139.6,174.4z M132.2,178.5c-0.8,0-1.6,0-2.1-0.4s-0.4-1.2-0.4-1.6c0-0.8,0.4-2.1-0.8-2.4c-1.2-0.4-1.6,1.2-1.6,2.1c0,1.2,0,4.1,0,6.1c0,1.6-0.4,4.1,0.8,4.5c2.4,0.8,1.2-2.8,2.1-4.5c0.4,0,1.6,0,2.1,0c0.4,2.1,0.4,5.3-0.8,6.1c-1.6,1.6-5.3,0.8-6.1-0.8c-0.4-0.4-0.4-1.2-0.4-2.1c-0.4-3.7,0.4-9,0.4-11.9c0.8-2.1,2.8-2.4,4.9-2.1c0.4,0,0.8,0.4,1.2,0.8c0.4,0.4,0.8,0.8,0.8,1.2c0,0.4,0,1.2,0,1.6C132.6,175.3,132.2,178.5,132.2,178.5z M75.9,177.3c-0.4,0-1.6,0.4-1.6,0c-0.4-0.8,0.4-2.4-0.4-2.8c-2.4-1.2-2.4,2.1-1.2,3.7c1.2,1.6,3.7,3.7,3.7,6.5c0,2.1-0.4,4.9-3.3,4.9c-3.3,0-3.3-3.7-2.8-6.1c0.4,0,1.2-0.4,2.1,0c0.4,1.2-0.4,3.7,1.2,3.7c0.8-0.4,0.8-2.1,0.8-2.8c0-0.4-0.4-1.2-0.8-1.6c-0.8-1.6-2.8-3.3-3.3-4.5c-0.4-1.6,0-4.1,0.8-4.9c0.8-0.8,3.3-1.2,4.9-0.8C76.3,172.8,76.3,175.7,75.9,177.3z M80.4,172.4c0.4,1.6,0,3.7,0,6.1c0,2.4-0.4,4.9,0,6.5c0,1.2,0.8,2.8,2.4,2.1c0.8-2.1,0.4-4.5,0.4-7.3c0-2.4,0-5.3,0-7.3c0.4-0.4,1.6-0.4,2.1,0c0,2.8,0,5.7,0,9c0,2.1,0.4,4.5-0.4,6.5c-0.8,2.1-4.5,2.4-6.1,0.8c-0.4-0.8-0.8-2.4-1.2-4.1c0-1.6,0-4.1,0-6.5c0-2.1-0.4-5.3,0.8-5.7C79.2,172,80,172,80.4,172.4z M113,172.4c0.8,1.6,1.2,3.7,2.1,5.3c0.8-1.6,1.6-3.3,2.1-5.3c0.4,0,1.6-0.4,2.1,0c0,1.2-0.8,2.8-1.2,4.1c-0.4,1.2-1.6,2.8-1.6,4.1c-0.4,2.8,0.8,5.7,0,8.6c-0.4,0-1.2,0-2.1,0c0-2.4,0-4.9,0-7c0-0.4,0-1.2,0-1.6c0-0.8-0.8-1.6-0.8-2.1c-0.4-0.8-0.4-1.6-0.8-2.4c-0.4-1.2-1.2-2.1-0.8-3.7C111.4,172,112.2,172.4,113,172.4z M152.2,172c1.2,0,2.1,0,3.3,0c1.6,0,2.4,0.4,2.8,2.1c0.4,1.2,0.4,2.8,0.4,4.5c0,0.4-0.4,1.2-0.8,2.1c0.8,0.4,0.4,1.6,0.8,3.3c0,2.1,0.8,4.9-1.2,5.7c-1.2,0.4-3.7,0-5.3,0C151.8,183.8,151.8,177.7,152.2,172C152.2,172.4,152.2,172,152.2,172z M154.7,174c0,1.6,0,3.3,0,5.3c0.4,0,0.8,0,1.2,0c0.4,0,0.8-0.4,0.8-1.2c0-1.2,0.4-2.8-0.4-3.7C155.5,174.4,155.1,174,154.7,174z M156.7,181.8c0,0,0-0.4-0.4-0.4s-1.6-0.8-1.6,0c0,1.6,0,3.7,0,5.3c0.4,0.4,1.6,0,2.1,0c0,0,0-2.4,0-2.8C156.7,183.4,157.1,182.6,156.7,181.8z M168.2,181c1.2,0.8,0,6.1,1.2,8.2c-0.8,0.4-2.1,0-2.8,0.4c-0.8-2.1,0.4-5.7-0.4-7.8c-0.4,0-0.8,0-1.2,0c-0.4,2.1,0,4.9,0,7.3c-0.8,0-2.1,0-2.8,0c0-5.3-0.4-11.4,0.4-16.3c2.4-0.4,6.5-0.8,7,1.6C169.4,176.1,169,179.8,168.2,181z M164.5,174.4c0,2.1,0,3.7,0,5.3c0.4,0,1.6,0,1.6-0.4c0-0.4,0-0.8,0-1.2s0-0.8,0-1.2c0-0.4,0-0.8,0-1.6c0-0.4,0-0.8,0-1.2C166.1,174,164.9,174.4,164.5,174.4z M189.8,189.1c-0.4-1.2-0.4-2.8-0.4-4.1c0-4.1,0-9,0.4-12.7c2.1-0.4,4.9-0.4,5.7,0.8c0.4,0.4,0.4,1.6,0.4,2.1c0,0.8,0,2.1,0,2.8c0,2.1,0,4.1,0,6.1c0,1.2,0,2.4,0,3.3C195.5,189.9,191.8,189.6,189.8,189.1z M191.8,174.4c0,4.1,0,8.6,0,12.2c0.8,0,1.6,0,2.1,0c-0.4-3.7,0.4-8.6-0.4-11.9C193.5,174.4,192.3,174.9,191.8,174.4z M99.6,181.4c-0.4,2.4,0,5.3-0.4,7.8c-0.4,0.4-1.6,0.4-2.1,0c-0.4-4.9-0.4-11.4,0-16.3c0.8,0,4.9-0.8,5.7,0c0.4,0.4,0.8,1.6,0.8,1.6c0.4,1.6,0.4,5.7-0.8,6.5C102,181.8,100.8,181.4,99.6,181.4z M101.2,174.9c-0.8,0-1.6,0-2.1,0c0,1.2,0,2.8,0,4.1c1.2,0,1.6,0,2.4-0.4C101.6,177.3,102,175.7,101.2,174.9z M108.2,172.4c0.4,4.1,0,9.4,0.4,13.9c0.8,0,2.8-0.4,3.7,0.4c0,0.8,0,2.1,0,2.4c-1.6,0-4.5,0.4-5.7-0.4c0-5.3-0.4-11.4,0.4-16.3C106.9,172.4,107.7,172.4,108.2,172.4z M174.7,172.4c0.4,0,0.4,2.4,0.4,2.8c0,1.2,0.4,2.8,0.8,4.1c0.4,1.2,0.8,2.4,0.8,3.7c0.4,1.2,0.4,2.4,0.4,3.3c0,0.8,0.8,2.1,0.4,2.8c-0.8,0-1.6,0-2.1-0.4c0-1.2-0.4-2.4-0.4-3.3c-0.4-0.4-1.6,0-2.4,0c0,1.2,0,2.8-0.8,3.7c-0.4,0-1.6,0-2.1,0c0.4-5.3,1.2-11.4,2.4-16.7c0,0,0-0.4,0.4-0.4C173.4,172.4,173.9,172.4,174.7,172.4z M173.1,183c0.4,0,1.2,0,1.6,0c0-1.6-0.4-3.3-0.8-4.9C173.4,179.8,173.4,181.4,173.1,183z M186.9,172.8c0,2.4,0,5.3,0,8.6c0,2.8,0.4,6.1-0.4,8.2c-0.4,0-1.6,0-2.4-0.4c-0.4-2.8-1.6-6.1-2.4-9c-0.4,2.8,0.4,6.1,0,9.4c-0.8,0.4-2.1,0-2.4-0.4c-0.4-4.9,0-11.4,0-16.3c0.8,0,1.6,0,2.4,0c1.2,2.4,2.4,5.3,2.8,8.6c0.4-2.4-0.4-6.1,0.4-8.6C185.3,172.4,185.7,172.4,186.9,172.8z M88.5,172.4c2.1,0.4,3.7-0.8,5.3,0.4c0.8,0.4,1.6,7,0.8,8.2c-0.8,1.2-2.4,0.8-3.7,0.8c-0.4,2.1,0,5.3-0.4,7.3c-0.4,0-1.6,0-2.1-0.4C88.1,183.4,88.1,178.1,88.5,172.4C88.5,172.8,88.5,172.4,88.5,172.4z M90.6,178.9c0.8,0,1.6,0,2.1-0.4c0-1.2,0-2.4-0.4-3.7c-0.4-0.4-1.2-0.4-2.1-0.4C90.6,176.1,90.6,177.7,90.6,178.9z M145.7,185.9c0,1.2,0.4,2.8-0.4,3.3c-0.8,0.4-1.6,0-2.1-0.4c0-1.2,0-2.4,0-3.3C144.1,185,144.9,185.5,145.7,185.9z"/>
</svg>
